<svg xmlns="http://www.w3.org/2000/svg" xmlns:xlink="http://www.w3.org/1999/xlink" version="1.1" x="0px" y="0px" width="110" viewBox="0 0 100 100" style="enable-background:new 0 0 100 100;" fill="#f3f4f6" xml:space="preserve"><g><path  d="M54,49.3H22.1c-0.8,0-1.5,0.7-1.5,1.5v21.4c0,0.8,0.7,1.5,1.5,1.5H54c0.8,0,1.5-0.7,1.5-1.5V50.8   C55.5,50,54.8,49.3,54,49.3z M52.5,70.8H23.6V52.3h28.9V70.8z"/><path d="M94.3,82.3h-7.3V41.8h0.8c3.5,0,6.3-2.8,6.3-6.3V30c0,0,0,0,0-0.1c0,0,0-0.1,0-0.1c0-0.1,0-0.1,0-0.2   c0,0,0,0,0-0.1L87.6,9.8c-0.2-0.6-0.8-1-1.4-1h-71c-0.6,0-1.2,0.4-1.4,0.9L6,29.4c0,0,0,0,0,0l0,0c0,0,0,0,0,0.1   c0,0.1-0.1,0.2-0.1,0.3c0,0,0,0.1,0,0.1c0,0,0,0.1,0,0.1v5.5c0,3.5,2.8,6.3,6.3,6.3h0.8v40.4H5.7c-0.8,0-1.5,0.7-1.5,1.5v6   c0,0.8,0.7,1.5,1.5,1.5h16.4c0.8,0,1.5-0.7,1.5-1.5s-0.7-1.5-1.5-1.5H7.2v-3h85.7v3H42.9c-0.8,0-1.5,0.7-1.5,1.5s0.7,1.5,1.5,1.5   h51.4c0.8,0,1.5-0.7,1.5-1.5v-6C95.8,82.9,95.2,82.3,94.3,82.3z M16.2,11.7h68.9l5.5,16.8h-81L16.2,11.7z M76,82.2H63.1V53.9   c0-3.6,2.9-6.4,6.4-6.4s6.4,2.9,6.4,6.4V82.2z M84.1,82.2H79V53.9c0-5.2-4.2-9.4-9.4-9.4s-9.4,4.2-9.4,9.4v28.2H15.9V41.7   c1.4-0.3,2.7-1,3.6-2.1c1.2,1.4,2.9,2.2,4.8,2.2h2.6c1.9,0,3.7-0.9,4.8-2.2c1.2,1.4,2.9,2.2,4.8,2.2h2.6c1.9,0,3.7-0.9,4.8-2.2   c1.2,1.4,2.9,2.2,4.8,2.2h2.6c1.9,0,3.7-0.9,4.8-2.2c1.2,1.4,2.9,2.2,4.8,2.2h2.6c1.9,0,3.7-0.9,4.8-2.2c1.2,1.4,2.9,2.2,4.8,2.2   h2.6c1.9,0,3.7-0.9,4.8-2.2c0.9,1.1,2.2,1.8,3.6,2.1V82.2z M82,35.5c0-0.8-0.7-1.5-1.5-1.5S79,34.7,79,35.5c0,1.8-1.5,3.3-3.3,3.3   h-2.6c-1.8,0-3.3-1.5-3.3-3.3c0-0.8-0.7-1.5-1.5-1.5s-1.5,0.7-1.5,1.5c0,1.8-1.5,3.3-3.3,3.3h-2.6c-1.8,0-3.3-1.5-3.3-3.3   c0-0.8-0.7-1.5-1.5-1.5s-1.5,0.7-1.5,1.5c0,1.8-1.5,3.3-3.3,3.3h-2.6c-1.8,0-3.3-1.5-3.3-3.3c0-0.8-0.7-1.5-1.5-1.5   s-1.5,0.7-1.5,1.5c0,1.8-1.5,3.3-3.3,3.3h-2.6c-1.8,0-3.3-1.5-3.3-3.3c0-0.8-0.7-1.5-1.5-1.5s-1.5,0.7-1.5,1.5   c0,1.8-1.5,3.3-3.3,3.3h-2.6c-1.8,0-3.3-1.5-3.3-3.3c0-0.8-0.7-1.5-1.5-1.5S18,34.7,18,35.5c0,1.8-1.5,3.3-3.3,3.3h-2.6   c-1.8,0-3.3-1.5-3.3-3.3v-4h5.6h5.1h12.2h12.2h12.2h12.2h12.2h5.1h5.6v4c0,1.8-1.5,3.3-3.3,3.3h-2.6C83.5,38.8,82,37.3,82,35.5z"/><path d="M29.7,88.3h-2.3c-0.8,0-1.5,0.7-1.5,1.5s0.7,1.5,1.5,1.5h2.3c0.8,0,1.5-0.7,1.5-1.5S30.6,88.3,29.7,88.3z"/><circle cx="66.2" cy="67.2" r="2.1"/><path d="M37.1,88.3h-1.7c-0.8,0-1.5,0.7-1.5,1.5s0.7,1.5,1.5,1.5h1.7c0.8,0,1.5-0.7,1.5-1.5S37.9,88.3,37.1,88.3z"/><path d="M29.7,66.7c0.4,0,0.8-0.2,1.1-0.5l4.4-4.7c0.6-0.6,0.5-1.6-0.1-2.1c-0.6-0.6-1.5-0.5-2.1,0.1l-4.4,4.7   c-0.6,0.6-0.5,1.6,0.1,2.1C29,66.5,29.4,66.7,29.7,66.7z"/><path d="M39.5,64.3c0.4,0,0.8-0.2,1.1-0.5l4.4-4.7c0.6-0.6,0.5-1.6-0.1-2.1c-0.6-0.6-1.6-0.5-2.1,0.1l-4.4,4.7   c-0.6,0.6-0.5,1.6,0.1,2.1C38.7,64.2,39.1,64.3,39.5,64.3z"/></g></svg>