<svg xmlns="http://www.w3.org/2000/svg" data-name="Layer 1" viewBox="0 0 100 100" x="0px" y="0px"><defs><style>
      .cls-1 {
        fill-rule: evenodd;
      }
    </style></defs><path class="cls-1" d="m68.582,80.523c3.005,0,5.442,2.436,5.442,5.442s-2.437,5.442-5.442,5.442-5.442-2.437-5.442-5.442,2.437-5.442,5.442-5.442h0ZM22.83,33.005c-.254-1.716.965-3.415,2.753-3.415h58.756c1.919,0,3.199,1.953,2.662,3.818-2.174,7.548-4.348,15.095-6.522,22.643-.877,3.045-2.637,7.751-6.65,7.751l-44.037.043c-1.417.001-2.548-1.099-2.755-2.494-1.402-9.449-2.805-18.897-4.207-28.345h0Zm4.987,17.866h7.441v-8.327h-8.677l1.236,8.327h0Zm9.754,0h10.035v-8.327h-10.035v8.327h0Zm12.347,0h10.035v-8.327h-10.035v8.327h0Zm12.347,0h10.035v-8.327h-10.035v8.327h0Zm12.347,0h4.963l2.399-8.327h-7.361v8.327h0Zm4.296,2.313h-4.296v8.173c2.028-.728,3.151-4.195,3.653-5.937l.644-2.235h0Zm-6.609,0h-10.035v8.326l10.035-.01v-8.316h0Zm-12.347,0h-10.035v8.338l10.035-.01v-8.328h0Zm-12.347,0h-10.035v8.35l10.035-.01v-8.34h0Zm-12.347,0h-7.098l1.163,7.833c.04.269.207.525.469.525l5.466-.005v-8.352h0Zm-9.02-12.953h9.02v-8.328l-9.74.003c-.309.046-.447.464-.402.764l1.122,7.56h0Zm11.333,0h10.035v-8.328h-10.035v8.328h0Zm12.347,0h10.035v-8.328h-10.035v8.328h0Zm12.347,0h10.035v-8.328h-10.035v8.328h0Zm12.347,0h8.027l2.147-7.454c.089-.31-.039-.873-.449-.873h-9.726v8.328h0Zm-51.753-13.729c-.601,0-1.094-.458-1.151-1.044l-1.528-10.291c-.089-.601-.425-1.048-.978-1.235l-8.765-2.991c-1.008-.312-1.99,1.05-1.406,2.264.161.336.431.602.771.717l7.274,2.482c.418.124.748.481.815.941l8.655,58.306c.118.731.417,1.505,1.3,1.505h51.665c1.184,0,1.732-1.739.877-2.682-.228-.251-.538-.407-.877-.407H29.92c-.565,0-1.059-.414-1.143-.989l-.735-5.026c0-.639.518-1.156,1.156-1.156h45.667c5.096,0,7.483-5.433,8.676-9.94l7.526-28.446c.253-.958-.31-2.007-1.234-2.007H22.86Zm.996-2.313l-1.389-9.357c-.211-1.423-1.148-2.624-2.491-3.076l-8.738-2.982c-.953-.324-1.964-.199-2.799.284-2.773,1.604-2.392,6.024.624,7.05l6.648,2.269,8.55,57.603c.168,1.877,1.644,3.488,3.587,3.488h51.665c1.013,0,1.927-.449,2.585-1.175,2.227-2.456.564-6.539-2.585-6.539H30.916l-.378-2.546h44.328c6.362,0,9.435-6.1,10.907-11.666l7.526-28.446c.638-2.412-1.019-4.907-3.466-4.907H23.856Zm18.574,62.933c-.639,0-1.156-.518-1.156-1.156s.518-1.156,1.156-1.156,1.156.518,1.156,1.156-.518,1.156-1.156,1.156h0Zm0-6.598c-3.005,0-5.442,2.437-5.442,5.442s2.437,5.442,5.442,5.442,5.442-2.436,5.442-5.442-2.437-5.442-5.442-5.442h0Zm2.213,3.229c-1.966-1.966-5.342-.567-5.342,2.213s3.376,4.178,5.342,2.213c1.222-1.222,1.222-3.203,0-4.425h0Zm23.939,3.369c.639,0,1.156-.518,1.156-1.156s-.518-1.156-1.156-1.156-1.156.518-1.156,1.156.518,1.156,1.156,1.156h0Zm2.213-3.369c-1.966-1.966-5.342-.567-5.342,2.213s3.376,4.178,5.342,2.213c1.222-1.222,1.222-3.203,0-4.425Z"/></svg>